<svg width="39" height="39" viewBox="0 0 39 39" fill="none" xmlns="http://www.w3.org/2000/svg">
<path d="M28.3333 1.8335H10.6667C5.78815 1.8335 1.83333 5.78831 1.83333 10.6668V28.3335C1.83333 33.212 5.78815 37.1668 10.6667 37.1668H28.3333C33.2118 37.1668 37.1667 33.212 37.1667 28.3335V10.6668C37.1667 5.78831 33.2118 1.8335 28.3333 1.8335Z" stroke="#3A3A3A" stroke-width="3" stroke-linecap="round" stroke-linejoin="round"/>
<path d="M19.5 26.125C23.1589 26.125 26.125 23.1589 26.125 19.5C26.125 15.8411 23.1589 12.875 19.5 12.875C15.8411 12.875 12.875 15.8411 12.875 19.5C12.875 23.1589 15.8411 26.125 19.5 26.125Z" stroke="#3A3A3A" stroke-width="3" stroke-linecap="round" stroke-linejoin="round"/>
<path d="M29.4375 9.5625V9.56471" stroke="#3A3A3A" stroke-width="3" stroke-linecap="round" stroke-linejoin="round"/>
</svg>
