<svg width="43" height="43" viewBox="0 0 43 43" fill="none" xmlns="http://www.w3.org/2000/svg">
<path d="M21.5 41.375C32.4767 41.375 41.375 32.4767 41.375 21.5C41.375 10.5233 32.4767 1.625 21.5 1.625C10.5233 1.625 1.625 10.5233 1.625 21.5C1.625 32.4767 10.5233 41.375 21.5 41.375Z" stroke="#3A3A3A" stroke-width="2" stroke-linecap="round" stroke-linejoin="round"/>
<path d="M2.94998 14.875H40.05" stroke="#3A3A3A" stroke-width="2" stroke-linecap="round" stroke-linejoin="round"/>
<path d="M2.94998 28.125H40.05" stroke="#3A3A3A" stroke-width="2" stroke-linecap="round" stroke-linejoin="round"/>
<path d="M20.3958 1.625C16.6756 7.58664 14.7032 14.4728 14.7032 21.5C14.7032 28.5272 16.6756 35.4134 20.3958 41.375" stroke="#3A3A3A" stroke-width="2" stroke-linecap="round" stroke-linejoin="round"/>
<path d="M22.6042 1.625C26.3244 7.58664 28.2968 14.4728 28.2968 21.5C28.2968 28.5272 26.3244 35.4134 22.6042 41.375" stroke="#3A3A3A" stroke-width="2" stroke-linecap="round" stroke-linejoin="round"/>
</svg>
