<svg width="33" height="39" viewBox="0 0 33 39" fill="none" xmlns="http://www.w3.org/2000/svg">
<path d="M10.875 19.5002C9.12794 19.5002 7.42011 20.0182 5.96747 20.9888C4.51484 21.9595 3.38265 23.339 2.71407 24.9531C2.0455 26.5672 1.87057 28.3433 2.21141 30.0568C2.55224 31.7703 3.39353 33.3442 4.6289 34.5796C5.86426 35.815 7.43821 36.6563 9.15171 36.9971C10.8652 37.3379 12.6413 37.163 14.2554 36.4944C15.8695 35.8259 17.249 34.6937 18.2197 33.241C19.1903 31.7884 19.7083 30.0806 19.7083 28.3335V1.8335C19.7083 4.76193 20.8717 7.57042 22.9424 9.64113C25.0131 11.7118 27.8216 12.8752 30.75 12.8752" stroke="#3A3A3A" stroke-width="3" stroke-linecap="round" stroke-linejoin="round"/>
</svg>
