<svg width="28" height="28" viewBox="0 0 28 28" fill="none" xmlns="http://www.w3.org/2000/svg">
<path d="M1 26.9756L3.38232 21.4867C1.55972 18.8984 0.743962 15.7336 1.08814 12.5862C1.43231 9.43887 2.91276 6.52538 5.25165 4.39248C7.59054 2.25959 10.6271 1.05393 13.7914 1.00177C16.9558 0.949601 20.0304 2.05452 22.4382 4.10916C24.8461 6.1638 26.4217 9.02692 26.8693 12.1612C27.317 15.2955 26.6059 18.4855 24.8695 21.1325C23.1331 23.7795 20.4909 25.7016 17.4385 26.5381C14.3862 27.3746 11.1337 27.0679 8.29133 25.6756L1 26.9756" stroke="#3A3A3A" stroke-width="2" stroke-linecap="round" stroke-linejoin="round"/>
<path d="M9.66296 11.0866C9.66296 11.2781 9.73902 11.4618 9.87441 11.5973C10.0098 11.7327 10.1934 11.8088 10.3849 11.8088C10.5763 11.8088 10.76 11.7327 10.8953 11.5973C11.0307 11.4618 11.1068 11.2781 11.1068 11.0866V9.64214C11.1068 9.4506 11.0307 9.2669 10.8953 9.13146C10.76 8.99601 10.5763 8.91992 10.3849 8.91992C10.1934 8.91992 10.0098 8.99601 9.87441 9.13146C9.73902 9.2669 9.66296 9.4506 9.66296 9.64214V11.0866ZM9.66296 11.0866C9.66296 13.002 10.4235 14.839 11.7774 16.1935C13.1313 17.5479 14.9675 18.3088 16.8821 18.3088H18.3259C18.5174 18.3088 18.701 18.2327 18.8364 18.0973C18.9718 17.9618 19.0478 17.7781 19.0478 17.5866C19.0478 17.395 18.9718 17.2113 18.8364 17.0759C18.701 16.9405 18.5174 16.8644 18.3259 16.8644H16.8821C16.6906 16.8644 16.507 16.9405 16.3716 17.0759C16.2362 17.2113 16.1602 17.395 16.1602 17.5866C16.1602 17.7781 16.2362 17.9618 16.3716 18.0973C16.507 18.2327 16.6906 18.3088 16.8821 18.3088" stroke="#3A3A3A" stroke-width="2" stroke-linecap="round" stroke-linejoin="round"/>
</svg>
